<svg id="visual" viewBox="0 0 1920 728" width="1920" height="728" xmlns="http://www.w3.org/2000/svg" xmlns:xlink="http://www.w3.org/1999/xlink" version="1.1"><path d="M0 287L45.7 311.8C91.3 336.7 182.7 386.3 274.2 416.3C365.7 446.3 457.3 456.7 548.8 427.3C640.3 398 731.7 329 823 297.7C914.3 266.3 1005.7 272.7 1097 296C1188.3 319.3 1279.7 359.7 1371.2 385.8C1462.7 412 1554.3 424 1645.8 435.2C1737.3 446.3 1828.7 456.7 1874.3 461.8L1920 467L1920 0L1874.3 0C1828.7 0 1737.3 0 1645.8 0C1554.3 0 1462.7 0 1371.2 0C1279.7 0 1188.3 0 1097 0C1005.7 0 914.3 0 823 0C731.7 0 640.3 0 548.8 0C457.3 0 365.7 0 274.2 0C182.7 0 91.3 0 45.7 0L0 0Z" fill="#E6E9F2" stroke-linecap="round" stroke-linejoin="miter"></path></svg>