<svg xmlns="http://www.w3.org/2000/svg" style="width:100vw"   viewBox="0 0 1930 327" fill="#000">
  <path d="M0 274.196L32.1667 272.292C64.3333 270.388 128.667 266.579 193 267.151C257.333 267.912 321.667 272.863 386 283.717C450.333 294.57 514.667 310.946 579 319.514C643.333 328.083 707.667 328.845 772 324.084C836.333 319.324 900.667 309.042 965 307.899C1029.33 306.566 1093.67 314.183 1158 315.135C1222.33 316.087 1286.67 310.375 1351 310.375C1415.33 310.375 1479.67 316.087 1544 316.087C1608.33 316.087 1672.67 310.375 1737 297.998C1801.33 285.621 1865.67 266.579 1897.83 257.059L1930 247.538V0H1897.83C1865.67 0 1801.33 0 1737 0C1672.67 0 1608.33 0 1544 0C1479.67 0 1415.33 0 1351 0C1286.67 0 1222.33 0 1158 0C1093.67 0 1029.33 0 965 0C900.667 0 836.333 0 772 0C707.667 0 643.333 0 579 0C514.667 0 450.333 0 386 0C321.667 0 257.333 0 193 0C128.667 0 64.3333 0 32.1667 0H0V274.196Z" fill="#F8F8F8"/>
</svg>