<svg id="visual" viewBox="0 0 1920 200" width="1920" height="200" xmlns="http://www.w3.org/2000/svg" xmlns:xlink="http://www.w3.org/1999/xlink" version="1.1"><path d="M0 123L192 128L384 141L576 122L768 127L960 144L1152 144L1344 135L1536 145L1728 149L1920 125L1920 201L1728 201L1536 201L1344 201L1152 201L960 201L768 201L576 201L384 201L192 201L0 201Z" fill="#f5730a"></path><path d="M0 170L192 159L384 164L576 143L768 157L960 140L1152 148L1344 152L1536 166L1728 152L1920 156L1920 201L1728 201L1536 201L1344 201L1152 201L960 201L768 201L576 201L384 201L192 201L0 201Z" fill="#fa5f00"></path><path d="M0 178L192 179L384 182L576 163L768 174L960 184L1152 165L1344 183L1536 163L1728 167L1920 185L1920 201L1728 201L1536 201L1344 201L1152 201L960 201L768 201L576 201L384 201L192 201L0 201Z" fill="#ff4500"></path></svg>